<?xml version="1.0" encoding="UTF-8"?>
<svg xmlns="http://www.w3.org/2000/svg" xmlns:xlink="http://www.w3.org/1999/xlink" viewBox="0 0 48 48" width="48px" height="48px">
<g id="surface34393125">
<path style=" stroke:none;fill-rule:nonzero;fill:rgb(100%,100%,100%);fill-opacity:1;" d="M 12 48 C 5.371094 48 0 42.628906 0 36 L 0 12 C 0 5.371094 5.371094 0 12 0 L 36 0 C 42.628906 0 48 5.371094 48 12 L 48 36 C 48 42.628906 42.628906 48 36 48 Z M 12 48 "/>
<path style=" stroke:none;fill-rule:nonzero;fill:rgb(0%,0%,0%);fill-opacity:1;" d="M 22.261719 8.164062 C 14.957031 8.957031 9.078125 14.832031 8.285156 21.980469 C 7.492188 29.445312 11.777344 36.117188 18.289062 38.65625 C 18.765625 38.816406 19.242188 38.5 19.242188 37.863281 L 19.242188 35.320312 C 19.242188 35.320312 18.609375 35.480469 17.8125 35.480469 C 15.589844 35.480469 14.636719 33.574219 14.480469 32.464844 C 14.320312 31.828125 14.003906 31.351562 13.527344 30.875 C 13.050781 30.714844 12.890625 30.714844 12.890625 30.558594 C 12.890625 30.238281 13.367188 30.238281 13.527344 30.238281 C 14.480469 30.238281 15.273438 31.351562 15.589844 31.828125 C 16.386719 33.097656 17.335938 33.417969 17.8125 33.417969 C 18.449219 33.417969 18.925781 33.257812 19.242188 33.097656 C 19.402344 31.988281 19.878906 30.875 20.832031 30.238281 C 17.179688 29.445312 14.480469 27.382812 14.480469 23.886719 C 14.480469 22.140625 15.273438 20.394531 16.386719 19.121094 C 16.226562 18.804688 16.066406 18.011719 16.066406 16.898438 C 16.066406 16.261719 16.066406 15.308594 16.542969 14.359375 C 16.542969 14.359375 18.765625 14.359375 20.992188 16.421875 C 21.785156 16.105469 22.898438 15.945312 24.007812 15.945312 C 25.121094 15.945312 26.230469 16.105469 27.183594 16.421875 C 29.25 14.359375 31.632812 14.359375 31.632812 14.359375 C 31.949219 15.308594 31.949219 16.261719 31.949219 16.898438 C 31.949219 18.167969 31.789062 18.804688 31.632812 19.121094 C 32.742188 20.394531 33.539062 21.980469 33.539062 23.886719 C 33.539062 27.382812 30.835938 29.445312 27.183594 30.238281 C 28.136719 31.035156 28.773438 32.464844 28.773438 33.894531 L 28.773438 38.023438 C 28.773438 38.5 29.25 38.976562 29.886719 38.816406 C 35.761719 36.433594 39.890625 30.714844 39.890625 24.046875 C 39.890625 14.515625 31.789062 7.050781 22.261719 8.164062 Z M 22.261719 8.164062 "/>
</g>
</svg>
